<svg width="512" height="512" viewBox="0 0 512 512" fill="none" xmlns="http://www.w3.org/2000/svg">
<circle cx="256" cy="256" r="208" fill="url(#paint0_linear)"/>
<path d="M200.064 448.056C200.04 445.112 200.016 432.36 199.992 420.424L199.968 408.024C146.136 415.344 133.104 377.784 132.96 377.384C125.488 358.44 115.272 353.024 114.832 352.8L113.84 352.224C110.136 349.696 100.312 342.968 103.104 334.12C105.624 326.144 115.392 325.32 119.832 325.464C144.424 327.184 156.872 349.288 157.384 350.224C169.936 371.736 189.096 369.512 201.456 364.976C202.608 359.472 204.392 354.416 206.728 349.952C167.08 342.92 122.16 321.832 122.16 245.12C122.16 224.056 128.72 205.44 141.688 189.688C138.792 180.04 135.496 160.36 145.256 135.568L146.648 132.032L150.264 130.88C153.592 129.784 171.768 125.888 209.136 150.344C224.56 146.392 240.888 144.352 257.728 144.272C274.648 144.352 290.992 146.392 306.448 150.344C343.784 125.88 361.92 129.824 365.256 130.88L368.864 132.04L370.256 135.56C380.056 160.344 376.76 180.032 373.864 189.688C386.808 205.392 393.368 224.016 393.368 245.12C393.368 321.848 348.4 342.872 308.664 349.816C313.168 358.336 315.608 369.032 315.608 380.84C315.608 394.304 315.552 438.472 315.488 448.056L299.488 447.944C299.552 438.376 299.608 394.28 299.608 380.832C299.608 361.296 292.064 352.656 288.808 349.84L274.968 337.864L293.16 335.84C334.8 331.216 377.36 316.808 377.36 245.112C377.36 226.472 371.144 210.224 358.88 196.824L355.44 193.072L357.376 188.376C358.704 185.168 364.528 168.84 357.032 146.048C350.968 146.408 336.488 149.264 312.36 165.624L309.288 167.696L305.728 166.712C290.824 162.568 274.224 160.344 257.72 160.264C241.304 160.344 224.728 162.568 209.848 166.712L206.288 167.696L203.224 165.624C179.072 149.272 164.56 146.392 158.472 146.032C150.992 168.84 156.824 185.168 158.152 188.376L160.088 193.072L156.656 196.824C144.368 210.272 138.144 226.52 138.144 245.112C138.144 316.776 180.624 331.272 222.176 336L240.192 338.048L226.528 349.968C223.552 352.568 218.288 358.864 216.496 371.784L215.896 376.176L211.848 377.992C201.28 382.728 165.136 395.288 143.464 358.112C143.344 357.912 139.112 350.552 131.448 345.656C136.616 350.768 142.912 359.04 147.992 371.952C148.52 373.472 158.848 400.928 206.232 390.664L215.88 388.568L215.976 420.392C216 432.288 216.024 445 216.048 447.944L200.064 448.056Z" fill="white"/>
<path d="M256 464C141.304 464 48 370.696 48 256C48 141.304 141.304 48 256 48C370.696 48 464 141.304 464 256C464 370.696 370.696 464 256 464ZM256 64C150.136 64 64 150.136 64 256C64 361.864 150.136 448 256 448C361.864 448 448 361.864 448 256C448 150.136 361.864 64 256 64Z" fill="white"/>
<defs>
<linearGradient id="paint0_linear" x1="256" y1="48" x2="256" y2="464" gradientUnits="userSpaceOnUse">
<stop stop-color="#1E6CFF"/>
<stop offset="1" stop-color="#C524FF"/>
</linearGradient>
</defs>
</svg>
