<svg width="512" height="512" viewBox="0 0 512 512" fill="none" xmlns="http://www.w3.org/2000/svg">
<path d="M49 301.333L214.5 424L72 240L49 301.333Z" fill="url(#paint0_linear)"/>
<path d="M463 301.333L297.5 424L440 240L463 301.333Z" fill="url(#paint1_linear)"/>
<path d="M128.36 64L69.456 224H179.416L128.36 64Z" fill="url(#paint2_linear)"/>
<path d="M383.64 64L332.584 224H442.544L383.64 64Z" fill="url(#paint3_linear)"/>
<path d="M179.416 224L256 464L332.584 224H179.416Z" fill="url(#paint4_linear)"/>
<path d="M61 224L256 464L451 224H61Z" fill="url(#paint5_linear)"/>
<path d="M256 472C254.328 472 252.648 471.48 251.232 470.432L35.232 310.432C32.384 308.312 31.264 304.576 32.488 301.24L120.856 61.24C122.032 58.048 124.888 56.184 128.536 56.008C131.96 56.088 134.952 58.32 135.992 61.576L263.624 461.576C264.68 464.88 263.472 468.488 260.656 470.512C259.264 471.504 257.632 472 256 472ZM49.576 301.144L240.84 442.824L127.832 88.624L49.576 301.144Z" fill="white"/>
<path d="M256 472C254.368 472 252.736 471.496 251.344 470.504C248.52 468.48 247.32 464.872 248.376 461.568L376.008 61.568C377.048 58.312 380.04 56.08 383.464 56C386.592 56.192 389.968 58.04 391.144 61.232L479.512 301.232C480.736 304.568 479.624 308.312 476.768 310.424L260.768 470.424C259.352 471.48 257.672 472 256 472ZM384.168 88.624L271.16 442.824L462.424 301.144L384.168 88.624Z" fill="white"/>
<path d="M256 472C253.528 472 251.192 470.856 249.688 468.904L63.144 228.904C61.272 226.496 60.928 223.224 62.272 220.48C63.616 217.736 66.4 216 69.456 216H442.552C445.608 216 448.392 217.744 449.736 220.488C451.08 223.232 450.736 226.504 448.864 228.912L262.32 468.912C260.808 470.856 258.472 472 256 472ZM85.808 232L256 450.96L426.192 232H85.808Z" fill="white"/>
<defs>
<linearGradient id="paint0_linear" x1="115" y1="297.814" x2="115" y2="464.721" gradientUnits="userSpaceOnUse">
<stop stop-color="#674CFF"/>
<stop offset="1" stop-color="#B42BFF"/>
</linearGradient>
<linearGradient id="paint1_linear" x1="115" y1="297.814" x2="115" y2="464.721" gradientUnits="userSpaceOnUse">
<stop stop-color="#674CFF"/>
<stop offset="1" stop-color="#B42BFF"/>
</linearGradient>
<linearGradient id="paint2_linear" x1="124.44" y1="64" x2="124.44" y2="224" gradientUnits="userSpaceOnUse">
<stop stop-color="#2868FF"/>
<stop offset="1" stop-color="#1A6DFF"/>
</linearGradient>
<linearGradient id="paint3_linear" x1="387.56" y1="64" x2="387.56" y2="224" gradientUnits="userSpaceOnUse">
<stop stop-color="#2768FF"/>
<stop offset="1" stop-color="#1A6DFF"/>
</linearGradient>
<linearGradient id="paint4_linear" x1="256" y1="224" x2="256" y2="464" gradientUnits="userSpaceOnUse">
<stop stop-color="#6DC7FF"/>
<stop offset="1" stop-color="#E6ABFF"/>
</linearGradient>
<linearGradient id="paint5_linear" x1="256" y1="224" x2="256" y2="464" gradientUnits="userSpaceOnUse">
<stop stop-color="#634EFF"/>
<stop offset="1" stop-color="#BA28FF"/>
</linearGradient>
</defs>
</svg>
