<svg width="450" height="417" viewBox="0 0 450 417" fill="none" xmlns="http://www.w3.org/2000/svg">
<path fill-rule="evenodd" clip-rule="evenodd" d="M449 0H1V248.781C0.996086 248.925 0.996102 249.07 1 249.214V417H224.999C224.764 417 224.529 416.99 224.294 416.969C222.86 416.843 221.449 416.332 220.232 415.432L4.23201 255.432C2.2154 253.931 1.06517 251.62 1 249.214V248.781C1.02306 247.93 1.18254 247.073 1.48801 246.24L89.856 6.24C91.032 3.048 93.888 1.184 97.536 1.008C100.96 1.088 103.952 3.32 104.992 6.576L154.266 161H295.732L345.008 6.568C346.048 3.312 349.04 1.08 352.464 1C355.592 1.192 358.968 3.04 360.144 6.232L448.512 246.232C448.813 247.052 448.973 247.897 449 248.736V249.257C448.922 251.647 447.776 253.939 445.768 255.424L229.972 415.273C229.869 415.355 229.764 415.435 229.656 415.512C229.02 415.965 228.334 416.315 227.62 416.561C226.984 416.781 226.326 416.918 225.663 416.973C225.442 416.991 225.221 417 225 417H449V249.257C449.006 249.084 449.006 248.91 449 248.736V0ZM431.424 246.144L267.12 367.853L409.017 185.294L431.424 246.144ZM353.168 33.624L400.072 161H312.529L353.168 33.624ZM224.999 382.678L290.627 177H159.371L224.999 382.678ZM96.832 33.624L137.471 161H49.9285L96.832 33.624ZM18.576 246.144L40.9873 185.281L182.914 367.878L18.576 246.144ZM307.424 177L246.312 368.541L395.192 177H307.424ZM54.808 177L203.688 368.541L142.576 177H54.808Z" fill="url(#paint0_linear)"/>
<defs>
<linearGradient id="paint0_linear" x1="225" y1="0.632003" x2="225" y2="418.512" gradientUnits="userSpaceOnUse">
<stop stop-color="#1A6DFF"/>
<stop offset="1" stop-color="#C822FF"/>
</linearGradient>
</defs>
</svg>
