<svg width="982" height="495" viewBox="0 0 982 495" fill="none" xmlns="http://www.w3.org/2000/svg">
<path d="M981.42 0.516602H0.243652V493.441H981.42V0.516602Z" fill="#3F3D56"/>
<path opacity="0.1" d="M563 134H0V493H563V134Z" fill="black"/>
<path d="M29.4453 30.8862C35.8964 30.8862 41.126 25.6566 41.126 19.2056C41.126 12.7545 35.8964 7.5249 29.4453 7.5249C22.9943 7.5249 17.7646 12.7545 17.7646 19.2056C17.7646 25.6566 22.9943 30.8862 29.4453 30.8862Z" fill="#6C63FF"/>
<path d="M65.6555 30.8862C72.1066 30.8862 77.3362 25.6566 77.3362 19.2056C77.3362 12.7545 72.1066 7.5249 65.6555 7.5249C59.2045 7.5249 53.9749 12.7545 53.9749 19.2056C53.9749 25.6566 59.2045 30.8862 65.6555 30.8862Z" fill="#6C63FF"/>
<path d="M101.865 30.8862C108.317 30.8862 113.546 25.6566 113.546 19.2056C113.546 12.7545 108.317 7.5249 101.865 7.5249C95.4144 7.5249 90.1848 12.7545 90.1848 19.2056C90.1848 25.6566 95.4144 30.8862 101.865 30.8862Z" fill="#6C63FF"/>
<path d="M88.3613 134H65V157.361H88.3613V134Z" fill="#6C63FF"/>
<path d="M848.26 387.147H824.899V410.508H848.26V387.147Z" fill="white"/>
<path d="M721.161 20L703 34.6945L717.694 52.8556L735.856 38.1611L721.161 20Z" fill="#6C63FF"/>
<g filter="url(#filter0_d)">
<mask id="path-9-inside-1" fill="white">
<path d="M386 480H18V134H19.1719V477.953H386V480Z"/>
</mask>
<path d="M386 480H18V134H19.1719V477.953H386V480Z" fill="#6C63FF"/>
<path d="M386 480V530H436V480H386ZM18 480H-32V530H18V480ZM18 134V84H-32V134H18ZM19.1719 134H69.1719V84H19.1719V134ZM19.1719 477.953H-30.8281V527.953H19.1719V477.953ZM386 477.953H436V427.953H386V477.953ZM386 430H18V530H386V430ZM68 480V134H-32V480H68ZM18 184H19.1719V84H18V184ZM-30.8281 134V477.953H69.1719V134H-30.8281ZM19.1719 527.953H386V427.953H19.1719V527.953ZM336 477.953V480H436V477.953H336Z" fill="#6C63FF" mask="url(#path-9-inside-1)"/>
</g>
<path d="M402.185 493.37C399.182 493.37 396.246 492.479 393.749 490.811C391.251 489.142 389.305 486.771 388.156 483.996C387.007 481.221 386.706 478.168 387.292 475.222C387.878 472.277 389.324 469.571 391.448 467.448C393.571 465.324 396.277 463.878 399.222 463.292C402.168 462.706 405.221 463.007 407.996 464.156C410.771 465.305 413.142 467.251 414.811 469.749C416.479 472.246 417.37 475.182 417.37 478.185C417.365 482.211 415.764 486.07 412.917 488.917C410.07 491.764 406.211 493.365 402.185 493.37V493.37ZM402.185 465.336C399.644 465.336 397.159 466.09 395.047 467.502C392.934 468.913 391.287 470.92 390.314 473.268C389.342 475.616 389.087 478.199 389.583 480.692C390.079 483.184 391.303 485.473 393.099 487.27C394.896 489.067 397.186 490.291 399.678 490.787C402.171 491.282 404.754 491.028 407.102 490.056C409.45 489.083 411.456 487.436 412.868 485.323C414.28 483.21 415.034 480.726 415.034 478.185C415.03 474.778 413.675 471.513 411.266 469.104C408.857 466.695 405.591 465.34 402.185 465.336V465.336Z" fill="white"/>
<path d="M18.1849 134.37C15.1816 134.37 12.2458 133.479 9.74862 131.811C7.25148 130.142 5.30519 127.771 4.15589 124.996C3.00658 122.221 2.70587 119.168 3.29178 116.222C3.87769 113.277 5.32391 110.571 7.44756 108.448C9.5712 106.324 12.2769 104.878 15.2225 104.292C18.168 103.706 21.2212 104.007 23.9959 105.156C26.7706 106.305 29.1421 108.251 30.8107 110.749C32.4792 113.246 33.3698 116.182 33.3698 119.185C33.3653 123.211 31.764 127.071 28.9173 129.917C26.0705 132.764 22.2108 134.365 18.1849 134.37V134.37ZM18.1849 106.336C15.6436 106.336 13.1595 107.09 11.0465 108.502C8.93354 109.913 7.28669 111.92 6.3142 114.268C5.34171 116.616 5.08726 119.199 5.58303 121.692C6.0788 124.184 7.30253 126.473 9.09946 128.27C10.8964 130.067 13.1858 131.291 15.6782 131.787C18.1706 132.283 20.7541 132.028 23.1019 131.056C25.4497 130.083 27.4564 128.436 28.8682 126.323C30.2801 124.21 31.0336 121.726 31.0336 119.185C31.0298 115.778 29.6748 112.513 27.2661 110.104C24.8573 107.695 21.5914 106.34 18.1849 106.336V106.336Z" fill="white"/>
<path d="M98.8739 464.056L88.4431 493.257H65V463.471C66.7287 426.105 87.6955 408.537 88.3497 408C72.5924 423.196 74.3445 475.736 74.3445 475.736C84.8572 430.182 94.2017 429.014 94.2017 429.014C88.5482 437.505 85.628 476.133 85.4529 478.54C86.1537 470.422 98.8739 464.056 98.8739 464.056Z" fill="#F2F2F2"/>
<path d="M29 454.006V493H58.5182L73 454.71C73 454.71 56.4904 462.509 55.5721 472.456C55.8017 469.387 59.5895 422.16 66.9357 411.762C66.9357 411.762 54.7878 413.188 41.1288 469.026C41.1288 469.026 38.8713 404.631 59.3217 386C58.4609 386.668 31.2382 408.187 29 454.006Z" fill="#F2F2F2"/>
<path d="M435.665 395.318H438.335L438.475 394.388L435.315 394.588L423.825 395.318L402.325 396.678L435.665 395.318Z" fill="#3F3D56"/>
<path d="M127 69V419H869V69H127ZM864.978 415.991H131.039V72.0222H864.978V415.991Z" fill="white"/>
<path d="M773.745 476.99C773.745 478.56 774.68 488.461 772.817 489.375C770.954 490.289 750.481 490.845 749.547 489.925C748.612 489.004 748.06 487.084 748.874 486.534C749.688 485.984 757.617 484.428 758.693 483.693C759.77 482.957 761.256 479.056 760.711 476.99" fill="#1F161E"/>
<path d="M834.976 347.555L823.428 343.488C823.925 322.778 828.842 276.503 835.83 269.621C837.464 268.005 869.922 265.197 875.72 265.197C910.276 265.197 920.519 269.085 923.129 271.648C931.206 279.589 933.728 316.427 933.728 329.322C933.728 342.217 896.737 348.9 896.737 348.9L853.377 351.84C853.377 351.84 843.86 352.801 835.635 353.277C835.46 350.794 834.976 347.555 834.976 347.555Z" fill="#6C63FF"/>
<path d="M800.628 359.563C797.474 358.642 766.105 353.602 759.279 360.225C752.452 366.848 730.93 461.803 730.93 463.989H748.249L771.64 414.468" fill="#1F161E"/>
<path d="M914.836 351.118C915.623 354.993 920.351 359.152 920.351 380.26C920.351 409.454 896.078 410.063 887.355 410.063C860.204 410.063 816.258 402.116 813.292 400.665C811.322 403.904 775.05 476.831 774.889 478.453H758.189C758.189 478.453 768.54 369.411 787.21 357.019C793.277 353.045 900.914 348.76 914.836 351.118Z" fill="#39374D"/>
<path d="M817.045 329.779C821.437 329.779 825.049 330.805 834.976 332.726L835.5 351.43C826.084 347.694 823.892 342.502 821.161 342.502C814.341 342.502 810.777 345.966 806.748 345.966C803.937 345.966 798.886 343.793 798.886 340.839C798.886 334.653 811.617 329.779 817.045 329.779Z" fill="#F8CDBA"/>
<path d="M747.266 462.677C747.266 464.254 748.201 474.148 746.338 475.069C744.475 475.99 724.002 476.533 723.068 475.619C722.133 474.705 721.581 472.777 722.395 472.228C723.209 471.678 731.138 470.115 732.214 469.386C733.291 468.658 734.777 464.75 734.232 462.677" fill="#1F161E"/>
<path d="M869.626 269.595C869.626 272.098 884.342 272.171 884.342 269.595V249.295H869.626V269.595Z" fill="#F8CDBA"/>
<path d="M874.415 255.964C875.76 255.964 884.342 259.693 884.342 261.779V250.792C882.203 250.792 874.415 255.964 874.415 255.964Z" fill="#1F161E"/>
<path d="M871.577 256.858C861.733 256.858 853.754 249.001 853.754 239.307C853.754 229.614 861.733 221.756 871.577 221.756C881.42 221.756 889.4 229.614 889.4 239.307C889.4 249.001 881.42 256.858 871.577 256.858Z" fill="#F8CDBA"/>
<path d="M853.175 225.551C855.381 229.002 859.995 230.585 864.992 230.585C869.25 230.585 875.451 229.366 879.869 231.843C882.25 233.168 884.988 236.181 885.546 242.215C885.546 243.248 886.729 247.255 886.729 248.547C886.729 249.434 887.738 250.01 889.42 250.01C890.287 250.01 891.996 248.619 891.996 246.507C891.996 244.063 891.014 243.195 891.014 241.122C891.014 239.049 893.637 237.029 893.637 231.267C893.637 222.968 888.256 217.855 884.449 217.855C880.986 217.855 879.89 218.65 879.452 218.988C879.452 211.444 869.364 208 865.328 208C860.755 208 858.603 209.854 858.603 212.199C858.603 215.954 860.412 219.133 861.333 219.849C859.25 218.002 856.543 216.985 853.74 216.994C848.494 216.994 846.732 220.385 846.732 222.703C846.732 227.75 852.879 232.419 855.166 232.419C855.739 231.217 856.414 230.065 857.184 228.975" fill="#1F161E"/>
<path d="M884.988 245.368C882.889 245.368 881.188 243.692 881.188 241.626C881.188 239.559 882.889 237.884 884.988 237.884C887.086 237.884 888.788 239.559 888.788 241.626C888.788 243.692 887.086 245.368 884.988 245.368Z" fill="#F8CDBA"/>
<path d="M853.579 242.526C851.952 242.526 850.633 241.85 850.633 241.016C850.633 240.182 851.952 239.506 853.579 239.506C855.206 239.506 856.525 240.182 856.525 241.016C856.525 241.85 855.206 242.526 853.579 242.526Z" fill="#FA9E9F"/>
<path d="M872.101 242.526C870.474 242.526 869.155 241.85 869.155 241.016C869.155 240.182 870.474 239.506 872.101 239.506C873.728 239.506 875.047 240.182 875.047 241.016C875.047 241.85 873.728 242.526 872.101 242.526Z" fill="#FA9E9F"/>
<path d="M860.769 237.884C860.217 238.652 857.406 241.904 860.378 243.222" stroke="#1F161E" stroke-miterlimit="10" stroke-linecap="round"/>
<path d="M866.31 247.017C867.198 247.017 868.563 245.937 869.29 244.957" stroke="#1F161E" stroke-miterlimit="10" stroke-linecap="round"/>
<path d="M842.811 294.153C841.466 296.975 834.976 324.123 834.976 332.726" stroke="#1F161E" stroke-miterlimit="10" stroke-linecap="round"/>
<path d="M933.728 327.129C933.728 357.655 933.446 366.51 920.997 366.51C892.319 366.51 848.965 343.329 841.237 343.329C834.417 343.329 830.853 346.793 826.817 346.793C824.013 346.793 818.955 344.614 818.955 341.667C818.955 335.481 831.687 330.607 837.114 330.607C849.328 330.607 898.103 342.204 899.286 342.204C900.47 342.204 902.481 341.694 902.481 339.72C902.481 336.137 900.107 327.865 899.791 327.136L933.728 327.129Z" fill="#F8CDBA"/>
<path d="M892.635 300.504C893.455 302.829 899.851 326.858 900.598 329.778" stroke="#1F161E" stroke-miterlimit="10" stroke-linecap="round"/>
<path d="M957.882 490.938C958.311 492.807 959.981 493.923 961.612 493.432C963.244 492.941 964.218 491.027 963.789 489.158L933.251 356.068C932.823 354.199 931.153 353.082 929.521 353.574C927.89 354.065 926.916 355.979 927.344 357.848L957.882 490.938Z" fill="#969696"/>
<path d="M927.038 357.85C927.467 355.981 926.492 354.067 924.861 353.576C923.23 353.084 921.56 354.201 921.131 356.07L890.593 489.16C890.164 491.029 891.139 492.943 892.77 493.434C894.401 493.925 896.071 492.808 896.5 490.939L927.038 357.85Z" fill="#969696"/>
<path d="M884.905 357.855C885.334 355.986 884.359 354.073 882.728 353.582C881.097 353.09 879.427 354.207 878.998 356.076L848.46 489.166C848.031 491.035 849.006 492.948 850.637 493.44C852.268 493.931 853.938 492.814 854.367 490.945L884.905 357.855Z" fill="#D8D8D8"/>
<path d="M915.217 490.941C915.646 492.81 917.316 493.926 918.947 493.435C920.579 492.944 921.553 491.03 921.124 489.161L890.586 356.071C890.158 354.202 888.488 353.086 886.856 353.577C885.225 354.068 884.251 355.982 884.679 357.851L915.217 490.941Z" fill="#D8D8D8"/>
<path d="M713.088 357.565C713.51 355.691 712.525 353.779 710.889 353.296C709.253 352.813 707.585 353.941 707.164 355.816L677.138 489.3C676.716 491.174 677.701 493.086 679.337 493.569C680.973 494.052 682.641 492.924 683.062 491.049L713.088 357.565Z" fill="#969696"/>
<path d="M742.932 490.429C743.353 492.304 745.021 493.432 746.657 492.949C748.293 492.465 749.278 490.554 748.856 488.68L718.83 355.195C718.409 353.321 716.741 352.193 715.105 352.676C713.469 353.159 712.484 355.07 712.906 356.945L742.932 490.429Z" fill="#969696"/>
<path d="M945.851 347H650.502C649.01 347 647.8 348.386 647.8 350.096V354.258C647.8 355.968 649.01 357.354 650.502 357.354H945.851C947.343 357.354 948.553 355.968 948.553 354.258V350.096C948.553 348.386 947.343 347 945.851 347Z" fill="#D8D8D8"/>
<path d="M669.221 357.861C669.65 355.992 668.676 354.079 667.044 353.587C665.413 353.096 663.743 354.213 663.314 356.082L632.776 489.172C632.348 491.041 633.322 492.954 634.953 493.445C636.585 493.937 638.255 492.82 638.683 490.951L669.221 357.861Z" fill="#D8D8D8"/>
<path d="M699.541 490.941C699.97 492.81 701.64 493.927 703.271 493.436C704.902 492.944 705.877 491.031 705.448 489.162L674.91 356.072C674.481 354.203 672.811 353.086 671.18 353.577C669.549 354.069 668.574 355.982 669.003 357.851L699.541 490.941Z" fill="#D8D8D8"/>
<path d="M847.029 262H752.004C749.793 262 748 263.701 748 265.8V321.744C748 323.843 749.793 325.544 752.004 325.544H847.029C849.241 325.544 851.034 323.843 851.034 321.744V265.8C851.034 263.701 849.241 262 847.029 262Z" fill="black"/>
<path d="M809.946 293.772H789.095V345.862H809.946V293.772Z" fill="black"/>
<path d="M787.713 292.323H788.224C788.338 292.323 788.452 292.345 788.557 292.386C788.663 292.428 788.759 292.489 788.84 292.565C788.921 292.642 788.985 292.733 789.029 292.834C789.073 292.934 789.095 293.042 789.095 293.15V325.558H786.841V293.15C786.841 293.042 786.864 292.934 786.907 292.834C786.951 292.733 787.015 292.642 787.096 292.565C787.177 292.489 787.273 292.428 787.379 292.386C787.485 292.345 787.598 292.323 787.713 292.323V292.323Z" fill="#2B2B2B"/>
<path d="M820.972 343.101H778.062V345.869H820.972V343.101Z" fill="black"/>
<path d="M799.517 288.352C801.872 288.352 803.78 286.541 803.78 284.307C803.78 282.072 801.872 280.261 799.517 280.261C797.162 280.261 795.253 282.072 795.253 284.307C795.253 286.541 797.162 288.352 799.517 288.352Z" fill="#2B2B2B"/>
<path d="M789.095 343.101H786.841V345.869H789.095V343.101Z" fill="#2B2B2B"/>
<path d="M791.35 325.544H789.095V343.094H791.35V325.544Z" fill="#2B2B2B"/>
<path d="M754.655 266.428H844.386" stroke="#2B2B2B" stroke-miterlimit="10"/>
<path d="M756.009 265.8C756.009 263.701 754.216 262 752.004 262C749.793 262 748 263.701 748 265.8V321.744C748 323.843 749.793 325.544 752.004 325.544C754.216 325.544 756.009 323.843 756.009 321.744V265.8Z" fill="#2B2B2B"/>
<path d="M934.5 94C960.181 94 981 73.1812 981 47.5C981 21.8188 960.181 1 934.5 1C908.819 1 888 21.8188 888 47.5C888 73.1812 908.819 94 934.5 94Z" fill="#F2F2F2"/>
<path d="M945.917 57.833C960.23 57.833 971.833 46.2298 971.833 31.9165C971.833 17.6032 960.23 6 945.917 6C931.603 6 920 17.6032 920 31.9165C920 46.2298 931.603 57.833 945.917 57.833Z" fill="#6C63FF"/>
<path d="M655.49 345.659H722.117L710.046 306.274C709.746 305.323 709.129 304.49 708.287 303.9C707.446 303.31 706.425 302.994 705.379 303H648.843C648.1 302.991 647.366 303.145 646.698 303.451C646.029 303.758 645.446 304.208 644.993 304.766C644.54 305.323 644.23 305.974 644.088 306.665C643.946 307.356 643.976 308.07 644.176 308.748L655.49 345.659Z" fill="black"/>
<path d="M680.626 328.198C678.374 328.198 676.549 326.466 676.549 324.33C676.549 322.194 678.374 320.462 680.626 320.462C682.877 320.462 684.702 322.194 684.702 324.33C684.702 326.466 682.877 328.198 680.626 328.198Z" fill="white"/>
<path d="M714.202 342.898H760.951V345.666H714.202V342.898Z" fill="black"/>
<defs>
<filter id="filter0_d" x="14" y="134" width="376" height="354" filterUnits="userSpaceOnUse" color-interpolation-filters="sRGB">
<feFlood flood-opacity="0" result="BackgroundImageFix"/>
<feColorMatrix in="SourceAlpha" type="matrix" values="0 0 0 0 0 0 0 0 0 0 0 0 0 0 0 0 0 0 127 0"/>
<feOffset dy="4"/>
<feGaussianBlur stdDeviation="2"/>
<feColorMatrix type="matrix" values="0 0 0 0 0 0 0 0 0 0 0 0 0 0 0 0 0 0 0.25 0"/>
<feBlend mode="normal" in2="BackgroundImageFix" result="effect1_dropShadow"/>
<feBlend mode="normal" in="SourceGraphic" in2="effect1_dropShadow" result="shape"/>
</filter>
</defs>
</svg>
